<svg width="163" height="29" viewBox="0 0 163 29" fill="none" xmlns="http://www.w3.org/2000/svg">
<path d="M20.78 4.132V28H14.966V18.174H5.922V28H0.108V4.132H5.922V13.482H14.966V4.132H20.78ZM23.8211 18.48C23.8211 16.5307 24.1838 14.8193 24.9091 13.346C25.6571 11.8727 26.6658 10.7393 27.9351 9.946C29.2045 9.15267 30.6211 8.756 32.1851 8.756C33.5225 8.756 34.6898 9.028 35.6871 9.572C36.7071 10.116 37.4891 10.83 38.0331 11.714V9.028H43.8471V28H38.0331V25.314C37.4665 26.198 36.6731 26.912 35.6531 27.456C34.6558 28 33.4885 28.272 32.1511 28.272C30.6098 28.272 29.2045 27.8753 27.9351 27.082C26.6658 26.266 25.6571 25.1213 24.9091 23.648C24.1838 22.152 23.8211 20.4293 23.8211 18.48ZM38.0331 18.514C38.0331 17.0633 37.6251 15.9187 36.8091 15.08C36.0158 14.2413 35.0411 13.822 33.8851 13.822C32.7291 13.822 31.7431 14.2413 30.9271 15.08C30.1338 15.896 29.7371 17.0293 29.7371 18.48C29.7371 19.9307 30.1338 21.0867 30.9271 21.948C31.7431 22.7867 32.7291 23.206 33.8851 23.206C35.0411 23.206 36.0158 22.7867 36.8091 21.948C37.6251 21.1093 38.0331 19.9647 38.0331 18.514ZM53.8673 11.714C54.4113 10.83 55.1933 10.116 56.2133 9.572C57.2333 9.028 58.4006 8.756 59.7153 8.756C61.2793 8.756 62.696 9.15267 63.9653 9.946C65.2346 10.7393 66.232 11.8727 66.9573 13.346C67.7053 14.8193 68.0793 16.5307 68.0793 18.48C68.0793 20.4293 67.7053 22.152 66.9573 23.648C66.232 25.1213 65.2346 26.266 63.9653 27.082C62.696 27.8753 61.2793 28.272 59.7153 28.272C58.378 28.272 57.2106 28.0113 56.2133 27.49C55.216 26.946 54.434 26.232 53.8673 25.348V28H48.0533V2.84H53.8673V11.714ZM62.1633 18.48C62.1633 17.0293 61.7553 15.896 60.9393 15.08C60.146 14.2413 59.16 13.822 57.9813 13.822C56.8253 13.822 55.8393 14.2413 55.0233 15.08C54.23 15.9187 53.8333 17.0633 53.8333 18.514C53.8333 19.9647 54.23 21.1093 55.0233 21.948C55.8393 22.7867 56.8253 23.206 57.9813 23.206C59.1373 23.206 60.1233 22.7867 60.9393 21.948C61.7553 21.0867 62.1633 19.9307 62.1633 18.48ZM74.0535 7.056C73.0335 7.056 72.1948 6.76133 71.5375 6.172C70.9028 5.56 70.5855 4.812 70.5855 3.928C70.5855 3.02133 70.9028 2.27333 71.5375 1.684C72.1948 1.072 73.0335 0.765998 74.0535 0.765998C75.0508 0.765998 75.8668 1.072 76.5015 1.684C77.1588 2.27333 77.4875 3.02133 77.4875 3.928C77.4875 4.812 77.1588 5.56 76.5015 6.172C75.8668 6.76133 75.0508 7.056 74.0535 7.056ZM76.9435 9.028V28H71.1295V9.028H76.9435ZM91.7308 23.07V28H88.7728C86.6648 28 85.0215 27.49 83.8428 26.47C82.6642 25.4273 82.0748 23.7387 82.0748 21.404V13.856H79.7628V9.028H82.0748V4.404H87.8888V9.028H91.6968V13.856H87.8888V21.472C87.8888 22.0387 88.0248 22.4467 88.2968 22.696C88.5688 22.9453 89.0222 23.07 89.6568 23.07H91.7308ZM115.641 4.132V28H109.827V18.174H100.783V28H94.9693V4.132H100.783V13.482H109.827V4.132H115.641ZM125.55 4.132V18.412C125.55 19.84 125.902 20.9393 126.604 21.71C127.307 22.4807 128.338 22.866 129.698 22.866C131.058 22.866 132.101 22.4807 132.826 21.71C133.552 20.9393 133.914 19.84 133.914 18.412V4.132H139.728V18.378C139.728 20.5087 139.275 22.3107 138.368 23.784C137.462 25.2573 136.238 26.368 134.696 27.116C133.178 27.864 131.478 28.238 129.596 28.238C127.715 28.238 126.026 27.8753 124.53 27.15C123.057 26.402 121.89 25.2913 121.028 23.818C120.167 22.322 119.736 20.5087 119.736 18.378V4.132H125.55ZM158.261 15.76C159.644 16.0547 160.754 16.746 161.593 17.834C162.432 18.8993 162.851 20.1233 162.851 21.506C162.851 23.5007 162.148 25.0873 160.743 26.266C159.36 27.422 157.422 28 154.929 28H143.811V4.132H154.555C156.98 4.132 158.873 4.68733 160.233 5.798C161.616 6.90867 162.307 8.416 162.307 10.32C162.307 11.7253 161.933 12.8927 161.185 13.822C160.46 14.7513 159.485 15.3973 158.261 15.76ZM149.625 13.788H153.433C154.385 13.788 155.11 13.584 155.609 13.176C156.13 12.7453 156.391 12.122 156.391 11.306C156.391 10.49 156.13 9.86667 155.609 9.436C155.11 9.00533 154.385 8.79 153.433 8.79H149.625V13.788ZM153.909 23.308C154.884 23.308 155.632 23.0927 156.153 22.662C156.697 22.2087 156.969 21.5627 156.969 20.724C156.969 19.8853 156.686 19.228 156.119 18.752C155.575 18.276 154.816 18.038 153.841 18.038H149.625V23.308H153.909Z" fill="black"/>
</svg>
